<svg width="20" height="20" viewBox="0 0 20 20" fill="none" xmlns="http://www.w3.org/2000/svg">
<path d="M9 1V4C9 4.55228 9.44772 5 10 5C10.5523 5 11 4.55228 11 4V1C11 0.447715 10.5523 0 10 0C9.44772 0 9 0.447715 9 1Z" fill="#DADADA"/>
<path d="M9 16V19C9 19.5523 9.44772 20 10 20C10.5523 20 11 19.5523 11 19V16C11 15.4477 10.5523 15 10 15C9.44772 15 9 15.4477 9 16Z" fill="#D9D9D9"/>
<path d="M13.6341 1.7072C13.9103 1.22891 14.5219 1.06503 15.0002 1.34117C15.4785 1.61732 15.6423 2.22891 15.3662 2.7072L13.8662 5.30527C13.59 5.78357 12.9785 5.94744 12.5002 5.6713C12.0219 5.39516 11.858 4.78357 12.1341 4.30527L13.6341 1.7072Z" fill="#DBDBDB"/>
<path d="M6.13414 14.6955C6.41028 14.2172 7.02187 14.0533 7.50017 14.3295C7.97846 14.6056 8.14233 15.2172 7.86619 15.6955L6.36619 18.2936C6.09005 18.7718 5.47846 18.9357 5.00017 18.6596C4.52187 18.3834 4.358 17.7718 4.63414 17.2936L6.13414 14.6955Z" fill="#DADADA"/>
<path d="M17.2945 4.63414C17.7728 4.358 18.3844 4.52187 18.6606 5.00017C18.9367 5.47846 18.7728 6.09005 18.2945 6.36619L15.6965 7.86619C15.2182 8.14233 14.6066 7.97846 14.3304 7.50017C14.0543 7.02187 14.2182 6.41028 14.6965 6.13414L17.2945 4.63414Z" fill="#BFBFBF"/>
<path d="M4.3043 12.1341C4.78259 11.858 5.39418 12.0219 5.67032 12.5002C5.94647 12.9785 5.78259 13.59 5.3043 13.8662L2.70622 15.3662C2.22793 15.6423 1.61634 15.4785 1.3402 15.0002C1.06405 14.5219 1.22793 13.9103 1.70622 13.6341L4.3043 12.1341Z" fill="#DADADA"/>
<path d="M19 9C19.5523 9 20 9.44772 20 10C20 10.5523 19.5523 11 19 11H16C15.4477 11 15 10.5523 15 10C15 9.44772 15.4477 9 16 9H19Z" fill="#B3B3B3"/>
<path d="M4 9C4.55228 9 5 9.44772 5 10C5 10.5523 4.55228 11 4 11H1C0.447715 11 0 10.5523 0 10C0 9.44772 0.447715 9 1 9H4Z" fill="#DADADA"/>
<path d="M18.2945 13.6341C18.7728 13.9103 18.9367 14.5219 18.6606 15.0002C18.3844 15.4785 17.7728 15.6423 17.2945 15.3662L14.6965 13.8662C14.2182 13.59 14.0543 12.9785 14.3304 12.5002C14.6066 12.0219 15.2182 11.858 15.6965 12.1341L18.2945 13.6341Z" fill="#A6A6A6"/>
<path d="M5.3043 6.13414C5.78259 6.41028 5.94647 7.02187 5.67032 7.50017C5.39418 7.97846 4.78259 8.14233 4.3043 7.86619L1.70622 6.36619C1.22793 6.09005 1.06405 5.47846 1.3402 5.00017C1.61634 4.52187 2.22793 4.358 2.70622 4.63414L5.3043 6.13414Z" fill="#DADADA"/>
<path d="M15.3662 17.2936C15.6423 17.7718 15.4785 18.3834 15.0002 18.6596C14.5219 18.9357 13.9103 18.7718 13.6341 18.2936L12.1341 15.6955C11.858 15.2172 12.0219 14.6056 12.5002 14.3295C12.9785 14.0533 13.59 14.2172 13.8662 14.6955L15.3662 17.2936Z" fill="#A6A6A6"/>
<path d="M7.86619 4.30527C8.14233 4.78357 7.97846 5.39516 7.50017 5.6713C7.02187 5.94744 6.41028 5.78357 6.13414 5.30527L4.63414 2.7072C4.358 2.22891 4.52187 1.61732 5.00017 1.34117C5.47846 1.06503 6.09005 1.22891 6.36619 1.7072L7.86619 4.30527Z" fill="#DADADA"/>
</svg>
